<?xml version="1.0" encoding="UTF-8"?>
<svg version="1.1" xmlns="http://www.w3.org/2000/svg" width="1024" height="1024">
<path d="M0 0 C337.92 0 675.84 0 1024 0 C1024 337.92 1024 675.84 1024 1024 C686.08 1024 348.16 1024 0 1024 C0 686.08 0 348.16 0 0 Z " fill="#171411" transform="translate(0,0)"/>
<path d="M0 0 C14.52 0 29.04 0 44 0 C44 7.59 44 15.18 44 23 C62.81 23 81.62 23 101 23 C101 30.26 101 37.52 101 45 C126.74 45 152.48 45 179 45 C179 52.92 179 60.84 179 69 C274.37 69 369.74 69 468 69 C468 172.29 468 275.58 468 382 C460.41 382 452.82 382 445 382 C445 395.86 445 409.72 445 424 C437.74 424 430.48 424 423 424 C423 431.26 423 438.52 423 446 C410.79 446 398.58 446 386 446 C386 439.07 386 432.14 386 425 C379.79207086 425.03958027 379.79207086 425.03958027 373.58422852 425.09008789 C372.81522217 425.09258545 372.04621582 425.09508301 371.25390625 425.09765625 C370.06776733 425.10551147 370.06776733 425.10551147 368.85766602 425.11352539 C367 425 367 425 366 424 C366 416.74 366 409.48 366 402 C264.36 402 162.72 402 58 402 C58 409.59 58 417.18 58 425 C51.4 425 44.8 425 38 425 C38 431.93 38 438.86 38 446 C25.46 446 12.92 446 0 446 C0 438.74 0 431.48 0 424 C-8.58 424 -17.16 424 -26 424 C-26 410.14 -26 396.28 -26 382 C-33.92 382 -41.84 382 -50 382 C-50 285.97 -50 189.94 -50 91 C-42.08 91 -34.16 91 -26 91 C-26 75.82 -26 60.64 -26 45 C-17.42 45 -8.84 45 0 45 C0 30.15 0 15.3 0 0 Z " fill="#EFAB79" transform="translate(301,258)"/>
<path d="M0 0 C84.81 0 169.62 0 257 0 C257 7.26 257 14.52 257 22 C283.07 22 309.14 22 336 22 C336 29.59 336 37.18 336 45 C343.92 45 351.84 45 360 45 C360 52.59 360 60.18 360 68 C367.92 68 375.84 68 384 68 C384 75.26 384 82.52 384 90 C391.59 90 399.18 90 407 90 C407 97.92 407 105.84 407 114 C414.59 114 422.18 114 430 114 C430 129.18 430 144.36 430 160 C438.25 160 446.5 160 455 160 C455 182.44 455 204.88 455 228 C439.16 228 423.32 228 407 228 C407 220.08 407 212.16 407 204 C345.95 204 284.9 204 222 204 C222 196.74 222 189.48 222 182 C196.59 182 171.18 182 145 182 C145 174.74 145 167.48 145 160 C117.61 160 90.22 160 62 160 C62 152.08 62 144.16 62 136 C41.54 136 21.08 136 0 136 C0 129.07 0 122.14 0 115 C-12.87 115 -25.74 115 -39 115 C-39 106.75 -39 98.5 -39 90 C-45.93 90 -52.86 90 -60 90 C-60 75.15 -60 60.3 -60 45 C-53.07 45 -46.14 45 -39 45 C-39 37.41 -39 29.82 -39 22 C-26.13 22 -13.26 22 0 22 C0 14.74 0 7.48 0 0 Z " fill="#3B322B" transform="translate(362,98)"/>
<path d="M0 0 C90.09 0 180.18 0 273 0 C273 26.73 273 53.46 273 81 C267.06 81 261.12 81 255 81 C255 87.27 255 93.54 255 100 C247.08 100 239.16 100 231 100 C231.33 100.66 231.66 101.32 232 102 C232 107.61 232 113.22 232 119 C217.15 119 202.3 119 187 119 C187 112.07 187 105.14 187 98 C153.34 98 119.68 98 85 98 C85 104.93 85 111.86 85 119 C70.48 119 55.96 119 41 119 C41 113.06 41 107.12 41 101 C33.74 101 26.48 101 19 101 C19 94.4 19 87.8 19 81 C12.73 81 6.46 81 0 81 C0 54.27 0 27.54 0 0 Z " fill="#74280F" transform="translate(376,701)"/>
<path d="M0 0 C14.52 0 29.04 0 44 0 C44 7.59 44 15.18 44 23 C62.81 23 81.62 23 101 23 C101 30.26 101 37.52 101 45 C126.74 45 152.48 45 179 45 C179 53.25 179 61.5 179 70 C274.04 70 369.08 70 467 70 C467 84.52 467 99.04 467 114 C371.96 114 276.92 114 179 114 C179 106.41 179 98.82 179 91 C153.26 91 127.52 91 101 91 C101 83.74 101 76.48 101 69 C82.19 69 63.38 69 44 69 C44 61.08 44 53.16 44 45 C29.48 45 14.96 45 0 45 C0 30.15 0 15.3 0 0 Z " fill="#D18449" transform="translate(301,258)"/>
<path d="M0 0 C6.93 0 13.86 0 21 0 C21 18.15 21 36.3 21 55 C29.25 55 37.5 55 46 55 C46 61.6 46 68.2 46 75 C105.73 75 165.46 75 227 75 C227 68.4 227 61.8 227 55 C235.91 55 244.82 55 254 55 C254 36.85 254 18.7 254 0 C260.27 0 266.54 0 273 0 C273 26.73 273 53.46 273 81 C267.06 81 261.12 81 255 81 C255 87.27 255 93.54 255 100 C247.08 100 239.16 100 231 100 C231.33 100.66 231.66 101.32 232 102 C232 107.61 232 113.22 232 119 C217.15 119 202.3 119 187 119 C187 112.07 187 105.14 187 98 C153.34 98 119.68 98 85 98 C85 104.93 85 111.86 85 119 C70.48 119 55.96 119 41 119 C41 113.06 41 107.12 41 101 C33.74 101 26.48 101 19 101 C19 94.4 19 87.8 19 81 C12.73 81 6.46 81 0 81 C0 54.27 0 27.54 0 0 Z " fill="#EFAD7A" transform="translate(376,701)"/>
<path d="M0 0 C25.08 0 50.16 0 76 0 C76 8.25 76 16.5 76 25 C82.93 25 89.86 25 97 25 C97 31.93 97 38.86 97 46 C90.07 46 83.14 46 76 46 C76 64.15 76 82.3 76 101 C50.92 101 25.84 101 0 101 C0 83.51 0 66.02 0 48 C9.24 48 18.48 48 28 48 C28 40.74 28 33.48 28 26 C19.09 26 10.18 26 1 26 C1 32.6 1 39.2 1 46 C-6.59 46 -14.18 46 -22 46 C-22 58.21 -22 70.42 -22 83 C-27.61 83 -33.22 83 -39 83 C-39 70.79 -39 58.58 -39 46 C-33.72 46 -28.44 46 -23 46 C-23 39.07 -23 32.14 -23 25 C-15.41 25 -7.82 25 0 25 C0 16.75 0 8.5 0 0 Z " fill="#191613" transform="translate(603,461)"/>
<path d="M0 0 C24.75 0 49.5 0 75 0 C75 8.25 75 16.5 75 25 C82.26 25 89.52 25 97 25 C97 31.93 97 38.86 97 46 C89.74 46 82.48 46 75 46 C75 64.15 75 82.3 75 101 C50.25 101 25.5 101 0 101 C0 83.51 0 66.02 0 48 C8.58 48 17.16 48 26 48 C26 40.74 26 33.48 26 26 C17.42 26 8.84 26 0 26 C0 32.6 0 39.2 0 46 C-7.59 46 -15.18 46 -23 46 C-23 39.07 -23 32.14 -23 25 C-15.41 25 -7.82 25 0 25 C0 16.75 0 8.5 0 0 Z " fill="#171411" transform="translate(345,461)"/>
<path d="M0 0 C60.06 0 120.12 0 182 0 C182 8.91 182 17.82 182 27 C121.94 27 61.88 27 0 27 C0 18.09 0 9.18 0 0 Z " fill="#FEFDFD" transform="translate(421,702)"/>
<path d="M0 0 C8.25 0 16.5 0 25 0 C25 22.44 25 44.88 25 68 C17.08 68 9.16 68 1 68 C1 83.18 1 98.36 1 114 C-14.18 114 -29.36 114 -45 114 C-45 99.15 -45 84.3 -45 69 C-38.07 69 -31.14 69 -24 69 C-24 53.82 -24 38.64 -24 23 C-16.08 23 -8.16 23 0 23 C0 15.41 0 7.82 0 0 Z " fill="#3B332B" transform="translate(251,212)"/>
<path d="M0 0 C6.27 0 12.54 0 19 0 C19 26.73 19 53.46 19 81 C13.06 81 7.12 81 1 81 C1 87.27 1 93.54 1 100 C-6.92 100 -14.84 100 -23 100 C-22.67 100.66 -22.34 101.32 -22 102 C-22 107.61 -22 113.22 -22 119 C-36.85 119 -51.7 119 -67 119 C-67 111.74 -67 104.48 -67 97 C-60.07 97 -53.14 97 -46 97 C-46 89.74 -46 82.48 -46 75 C-39.73 75 -33.46 75 -27 75 C-27 68.4 -27 61.8 -27 55 C-18.09 55 -9.18 55 0 55 C0 36.85 0 18.7 0 0 Z " fill="#EFAD7B" transform="translate(630,701)"/>
<path d="M0 0 C8.58 0 17.16 0 26 0 C26 51.15 26 102.3 26 155 C17.42 155 8.84 155 0 155 C0 103.85 0 52.7 0 0 Z " fill="#FDFDFD" transform="translate(792,486)"/>
<path d="M0 0 C8.58 0 17.16 0 26 0 C26 51.15 26 102.3 26 155 C17.42 155 8.84 155 0 155 C0 103.85 0 52.7 0 0 Z " fill="#FEFEFE" transform="translate(206,486)"/>
<path d="M0 0 C45.54 0 91.08 0 138 0 C138 6.93 138 13.86 138 21 C144.6 21 151.2 21 158 21 C158 27.93 158 34.86 158 42 C151.4 42 144.8 42 138 42 C138 35.4 138 28.8 138 22 C92.46 22 46.92 22 0 22 C0 28.6 0 35.2 0 42 C-6.6 42 -13.2 42 -20 42 C-20 35.07 -20 28.14 -20 21 C-13.4 21 -6.8 21 0 21 C0 14.07 0 7.14 0 0 Z " fill="#161311" transform="translate(584,389)"/>
<path d="M0 0 C44.88 0 89.76 0 136 0 C136 6.93 136 13.86 136 21 C142.6 21 149.2 21 156 21 C155.67 27.93 155.34 34.86 155 42 C148.73 42 142.46 42 136 42 C136 35.4 136 28.8 136 22 C91.12 22 46.24 22 0 22 C0 14.74 0 7.48 0 0 Z " fill="#171411" transform="translate(302,389)"/>
<path d="M0 0 C47.52 0 95.04 0 144 0 C144 7.26 144 14.52 144 22 C96.48 22 48.96 22 0 22 C0 14.74 0 7.48 0 0 Z " fill="#D1844A" transform="translate(440,776)"/>
<path d="M0 0 C8.58 0 17.16 0 26 0 C26 51.15 26 102.3 26 155 C17.42 155 8.84 155 0 155 C0 154.67 0 154.34 0 154 C8.25 154 16.5 154 25 154 C25 124.96 25 95.92 25 66 C16.75 66 8.5 66 0 66 C0 44.22 0 22.44 0 0 Z " fill="#E9AC7D" transform="translate(206,486)"/>
<path d="M0 0 C8.58 0 17.16 0 26 0 C26 21.78 26 43.56 26 66 C17.42 66 8.84 66 0 66 C0 44.22 0 22.44 0 0 Z " fill="#D5864B" transform="translate(792,486)"/>
<path d="M0 0 C3.57770876 7.15541753 0.36326129 16.00825168 0 24 C-24.42 24 -48.84 24 -74 24 C-74.33 16.41 -74.66 8.82 -75 1 C-50.25 0.67 -25.5 0.34 0 0 Z " fill="#D08349" transform="translate(549,594)"/>
<path d="M0 0 C24.75 0 49.5 0 75 0 C75 6.27 75 12.54 75 19 C50.25 19 25.5 19 0 19 C0 12.73 0 6.46 0 0 Z " fill="#D1844A" transform="translate(474,641)"/>
<path d="M0 0 C8.58 0 17.16 0 26 0 C26 7.26 26 14.52 26 22 C17.42 22 8.84 22 0 22 C0 33.55 0 45.1 0 57 C-7.59 57 -15.18 57 -23 57 C-23 44.79 -23 32.58 -23 20 C-15.41 20 -7.82 20 0 20 C0 13.4 0 6.8 0 0 Z " fill="#FEFEFE" transform="translate(345,487)"/>
<path d="M0 0 C8.91 0 17.82 0 27 0 C27 7.26 27 14.52 27 22 C17.76 22 8.52 22 -1 22 C-1 33.55 -1 45.1 -1 57 C-8.26 57 -15.52 57 -23 57 C-23 44.79 -23 32.58 -23 20 C-15.41 20 -7.82 20 0 20 C0 13.4 0 6.8 0 0 Z " fill="#FEFEFE" transform="translate(604,487)"/>
<path d="M0 0 C0.99 0.495 0.99 0.495 2 1 C3.81341842 1.08471364 5.62994161 1.10721083 7.4453125 1.09765625 C8.41484863 1.09515869 9.38438477 1.09266113 10.38330078 1.09008789 C11.61806152 1.08098389 12.85282227 1.07187988 14.125 1.0625 C18.04375 1.041875 21.9625 1.02125 26 1 C26 15.85 26 30.7 26 46 C17.42 46 8.84 46 0 46 C0 30.82 0 15.64 0 0 Z " fill="#CF8248" transform="translate(275,303)"/>
<path d="M0 0 C7.92 0 15.84 0 24 0 C24 14.85 24 29.7 24 45 C16.08 45 8.16 45 0 45 C0 30.15 0 15.3 0 0 Z " fill="#D38549" transform="translate(251,349)"/>
<path d="M0 0 C6.93 0 13.86 0 21 0 C21 12.21 21 24.42 21 37 C14.07 37 7.14 37 0 37 C0 24.79 0 12.58 0 0 Z " fill="#FDFDFD" transform="translate(679,507)"/>
<path d="M0 0 C6.93 0 13.86 0 21 0 C21 12.21 21 24.42 21 37 C14.07 37 7.14 37 0 37 C0 24.79 0 12.58 0 0 Z " fill="#FEFEFE" transform="translate(421,507)"/>
<path d="M0 0 C6.93 0 13.86 0 21 0 C21 18.15 21 36.3 21 55 C20.67 55 20.34 55 20 55 C20 47.08 20 39.16 20 31 C13.4 31 6.8 31 0 31 C0 20.77 0 10.54 0 0 Z " fill="#D2854A" transform="translate(376,701)"/>
<path d="M0 0 C5.61 0 11.22 0 17 0 C17 12.21 17 24.42 17 37 C11.39 37 5.78 37 0 37 C0 24.79 0 12.58 0 0 Z " fill="#1A1713" transform="translate(700,507)"/>
<path d="M0 0 C5.61 0 11.22 0 17 0 C17 12.21 17 24.42 17 37 C11.39 37 5.78 37 0 37 C0 24.79 0 12.58 0 0 Z " fill="#1A1613" transform="translate(442,507)"/>
<path d="M0 0 C5.61 0 11.22 0 17 0 C17 12.21 17 24.42 17 37 C11.39 37 5.78 37 0 37 C0 24.79 0 12.58 0 0 Z " fill="#161311" transform="translate(305,507)"/>
<path d="M0 0 C5.28 0 10.56 0 16 0 C16 12.21 16 24.42 16 37 C10.72 37 5.44 37 0 37 C0 24.79 0 12.58 0 0 Z " fill="#161310" transform="translate(564,507)"/>
<path d="M0 0 C6.27 0 12.54 0 19 0 C19 10.23 19 20.46 19 31 C12.73 31 6.46 31 0 31 C0 20.77 0 10.54 0 0 Z " fill="#D4864B" transform="translate(630,701)"/>
<path d="M0 0 C0 8.25 0 16.5 0 25 C6.93 25 13.86 25 21 25 C21 31.93 21 38.86 21 46 C14.07 46 7.14 46 0 46 C0 64.15 0 82.3 0 101 C-25.08 101 -50.16 101 -76 101 C-76 83.51 -76 66.02 -76 48 C-66.76 48 -57.52 48 -48 48 C-48 40.74 -48 33.48 -48 26 C-56.58 26 -65.16 26 -74 26 C-74 25.67 -74 25.34 -74 25 C-65.09 25 -56.18 25 -47 25 C-47 32.92 -47 40.84 -47 49 C-55.91 49 -64.82 49 -74 49 C-74 65.83 -74 82.66 -74 100 C-50.24 100 -26.48 100 -2 100 C-2.03961033 82.27354446 -2.03961033 82.27354446 -2.09008789 64.54711914 C-2.09300683 62.33479866 -2.09555544 60.12247765 -2.09765625 57.91015625 C-2.10277222 56.74931519 -2.10788818 55.58847412 -2.11315918 54.39245605 C-2.11334045 52.74811584 -2.11334045 52.74811584 -2.11352539 51.07055664 C-2.115746 50.11347305 -2.11796661 49.15638947 -2.12025452 48.17030334 C-2 46 -2 46 -1 45 C0.4887186 44.91330568 1.981445 44.89296506 3.47265625 44.90234375 C4.37177734 44.90556641 5.27089844 44.90878906 6.19726562 44.91210938 C7.61555664 44.92467773 7.61555664 44.92467773 9.0625 44.9375 C10.4865918 44.94426758 10.4865918 44.94426758 11.93945312 44.95117188 C14.29299531 44.96299872 16.64650532 44.98093479 19 45 C19 38.73 19 32.46 19 26 C17.56785156 26.01160156 16.13570312 26.02320313 14.66015625 26.03515625 C12.79427213 26.04453255 10.92838661 26.05363292 9.0625 26.0625 C8.11697266 26.07087891 7.17144531 26.07925781 6.19726562 26.08789062 C4.84858398 26.09272461 4.84858398 26.09272461 3.47265625 26.09765625 C2.22367554 26.10551147 2.22367554 26.10551147 0.94946289 26.11352539 C-1 26 -1 26 -2 25 C-2 17.41 -2 9.82 -2 2 C-20.81 2 -39.62 2 -59 2 C-59 1.67 -59 1.34 -59 1 C-51.60266794 0.86941006 -44.20533258 0.73900839 -36.80799294 0.60884857 C-33.37329573 0.54840744 -29.93859969 0.48790091 -26.50390625 0.42724609 C-22.55729506 0.35755394 -18.61067894 0.2881441 -14.6640625 0.21875 C-13.42757965 0.19687622 -12.1910968 0.17500244 -10.91714478 0.15246582 C-9.77611298 0.13244507 -8.63508118 0.11242432 -7.45947266 0.09179688 C-5.94723618 0.06514954 -5.94723618 0.06514954 -4.40444946 0.03796387 C-2.93642808 0.01478527 -1.46820436 0 0 0 Z " fill="#0C0909" transform="translate(679,461)"/>
<path d="M0 0 C7.26 0.33 14.52 0.66 22 1 C22 8.26 22 15.52 22 23 C11.11 23.495 11.11 23.495 0 24 C0 16.08 0 8.16 0 0 Z " fill="#CF8248" transform="translate(452,617)"/>
<path d="M0 0 C6.93 0 13.86 0 21 0 C21 7.59 21 15.18 21 23 C14.07 23 7.14 23 0 23 C0 15.41 0 7.82 0 0 Z " fill="#CE8146" transform="translate(549,618)"/>
<path d="M0 0 C6.27 0.33 12.54 0.66 19 1 C19 7.6 19 14.2 19 21 C12.73 21 6.46 21 0 21 C0 14.07 0 7.14 0 0 Z " fill="#141210" transform="translate(282,410)"/>
<path d="M0 0 C5.94 0 11.88 0 18 0 C17.9375 8.4375 17.9375 8.4375 17.90991211 11.09936523 C17.90276909 13.06645974 17.94968107 15.03353621 18 17 C18.33 17.33 18.66 17.66 19 18 C19 12.06 19 6.12 19 0 C19.33 0 19.66 0 20 0 C20.33 6.27 20.66 12.54 21 19 C17.68744674 19.02683436 14.37510817 19.0467578 11.0625 19.0625 C10.11697266 19.07087891 9.17144531 19.07925781 8.19726562 19.08789062 C6.84858398 19.09272461 6.84858398 19.09272461 5.47265625 19.09765625 C4.22367554 19.10551147 4.22367554 19.10551147 2.94946289 19.11352539 C1 19 1 19 0 18 C-0.08631874 16.65732587 -0.10706473 15.31025678 -0.09765625 13.96484375 C-0.09515869 13.23644287 -0.09266113 12.50804199 -0.09008789 11.75756836 C-0.08098389 10.8269458 -0.07187988 9.89632324 -0.0625 8.9375 C-0.041875 5.988125 -0.02125 3.03875 0 0 Z " fill="#161311" transform="translate(583,488)"/>
<path d="M0 0 C0.33 0 0.66 0 1 0 C1 10.56 1 21.12 1 32 C14.86 32 28.72 32 43 32 C43 39.59 43 47.18 43 55 C42.67 55 42.34 55 42 55 C42 47.74 42 40.48 42 33 C28.47 33 14.94 33 1 33 C1 47.85 1 62.7 1 78 C0.67 78 0.34 78 0 78 C-0.33 63.48 -0.66 48.96 -1 34 C-8.92 33.67 -16.84 33.34 -25 33 C-25 47.52 -25 62.04 -25 77 C-25.33 77 -25.66 77 -26 77 C-26 62.15 -26 47.3 -26 32 C-17.42 32 -8.84 32 0 32 C0 21.44 0 10.88 0 0 Z " fill="#F6A96F" transform="translate(302,271)"/>
<path d="M0 0 C0.66 0 1.32 0 2 0 C2 8.25 2 16.5 2 25 C-5.59 25 -13.18 25 -21 25 C-21 31.93 -21 38.86 -21 46 C-26.61 46 -32.22 46 -38 46 C-38 58.21 -38 70.42 -38 83 C-38.33 83 -38.66 83 -39 83 C-39.02464849 77.60653012 -39.04283531 72.21309275 -39.05493164 66.81958008 C-39.05997231 64.98331125 -39.06680477 63.14704646 -39.07543945 61.31079102 C-39.08751672 58.67723599 -39.09323081 56.04373384 -39.09765625 53.41015625 C-39.10281754 52.58411392 -39.10797882 51.75807159 -39.11329651 50.90699768 C-39.11349205 48.93763632 -39.06204152 46.96838386 -39 45 C-38 44 -38 44 -34.40234375 43.90234375 C-32.91403133 43.9090178 -31.42573568 43.92097817 -29.9375 43.9375 C-28.79958008 43.94426758 -28.79958008 43.94426758 -27.63867188 43.95117188 C-25.75908129 43.9629932 -23.87953101 43.98092922 -22 44 C-22.00785522 43.09906616 -22.00785522 43.09906616 -22.01586914 42.17993164 C-22.03658014 39.47413162 -22.04964125 36.76834823 -22.0625 34.0625 C-22.07087891 33.11697266 -22.07925781 32.17144531 -22.08789062 31.19726562 C-22.09272461 29.84858398 -22.09272461 29.84858398 -22.09765625 28.47265625 C-22.10551147 27.22367554 -22.10551147 27.22367554 -22.11352539 25.94946289 C-22 24 -22 24 -21 23 C-19.43827255 22.91314397 -17.87270656 22.89297781 -16.30859375 22.90234375 C-15.45837646 22.90484131 -14.60815918 22.90733887 -13.73217773 22.90991211 C-12.64493408 22.91901611 -11.55769043 22.92812012 -10.4375 22.9375 C-6.993125 22.958125 -3.54875 22.97875 0 23 C0 15.41 0 7.82 0 0 Z " fill="#F7C68C" transform="translate(343,461)"/>
<path d="M0 0 C7.59 0 15.18 0 23 0 C23 0.99 23 1.98 23 3 C16.4 3 9.8 3 3 3 C3 16.2 3 29.4 3 43 C-4.92 43 -12.84 43 -21 43 C-21 42.67 -21 42.34 -21 42 C-14.07 42 -7.14 42 0 42 C0 28.14 0 14.28 0 0 Z " fill="#463529" transform="translate(746,640)"/>
<path d="M0 0 C5.61 0 11.22 0 17 0 C17 12.21 17 24.42 17 37 C11.39 37 5.78 37 0 37 C0 24.79 0 12.58 0 0 Z M1 1 C1 12.22 1 23.44 1 35 C5.62 35 10.24 35 15 35 C15 23.78 15 12.56 15 1 C10.38 1 5.76 1 1 1 Z " fill="#120D0B" transform="translate(700,507)"/>
<path d="M0 0 C5.61 0 11.22 0 17 0 C17 12.21 17 24.42 17 37 C11.39 37 5.78 37 0 37 C0 25.45 0 13.9 0 2 C0.33 2 0.66 2 1 2 C1 12.89 1 23.78 1 35 C5.62 35 10.24 35 15 35 C15 23.78 15 12.56 15 1 C10.05 1 5.1 1 0 1 C0 0.67 0 0.34 0 0 Z " fill="#090606" transform="translate(442,507)"/>
<path d="M0 0 C0.99 0.495 0.99 0.495 2 1 C4.2072923 1.07092842 6.41667452 1.08415025 8.625 1.0625 C10.40777344 1.04896484 10.40777344 1.04896484 12.2265625 1.03515625 C13.59941406 1.01775391 13.59941406 1.01775391 15 1 C15 1.33 15 1.66 15 2 C11.04 2 7.08 2 3 2 C3 12.56 3 23.12 3 34 C6.96 34 10.92 34 15 34 C15.33 34.99 15.66 35.98 16 37 C10.72 37 5.44 37 0 37 C0 24.79 0 12.58 0 0 Z " fill="#2D211B" transform="translate(305,507)"/>
<path d="M0 0 C0.33 0 0.66 0 1 0 C1 6.6 1 13.2 1 20 C-5.27 20 -11.54 20 -18 20 C-18 13.73 -18 7.46 -18 1 C-9.5625 1.0625 -9.5625 1.0625 -6.90063477 1.09008789 C-4.93354026 1.09723091 -2.96646379 1.05031893 -1 1 C-0.67 0.67 -0.34 0.34 0 0 Z M-17 2 C-17 6.95 -17 11.9 -17 17 C-12.05 17 -7.1 17 -2 17 C-2 12.05 -2 7.1 -2 2 C-6.95 2 -11.9 2 -17 2 Z " fill="#251E19" transform="translate(741,411)"/>
<path d="M0 0 C5.94 0.33 11.88 0.66 18 1 C18 1.33 18 1.66 18 2 C12.39 2 6.78 2 1 2 C1.01160156 3.28777344 1.02320313 4.57554687 1.03515625 5.90234375 C1.0445327 7.58072772 1.05363305 9.25911326 1.0625 10.9375 C1.07087891 11.78763672 1.07925781 12.63777344 1.08789062 13.51367188 C1.09272461 14.72700195 1.09272461 14.72700195 1.09765625 15.96484375 C1.10551147 17.08814087 1.10551147 17.08814087 1.11352539 18.23413086 C1 20 1 20 0 21 C-1.63472882 21.08700342 -3.27314055 21.10701063 -4.91015625 21.09765625 C-5.89951172 21.09443359 -6.88886719 21.09121094 -7.90820312 21.08789062 C-8.94912109 21.07951172 -9.99003906 21.07113281 -11.0625 21.0625 C-12.10728516 21.05798828 -13.15207031 21.05347656 -14.22851562 21.04882812 C-16.81903454 21.03699927 -19.40952422 21.01906319 -22 21 C-22 26.94 -22 32.88 -22 39 C-22.33 39 -22.66 39 -23 39 C-23.33 32.4 -23.66 25.8 -24 19 C-16.08 19 -8.16 19 0 19 C0 12.73 0 6.46 0 0 Z " fill="#040304" transform="translate(631,782)"/>
<path d="M0 0 C6.27 0 12.54 0 19 0 C19 0.99 19 1.98 19 3 C13.39 3 7.78 3 2 3 C2.144375 5.454375 2.28875 7.90875 2.4375 10.4375 C2.48060303 11.21150146 2.52370605 11.98550293 2.56811523 12.78295898 C2.49795579 16.18161081 2.49795579 16.18161081 4 19 C6.52596259 19.23653523 9.03107207 19.42173692 11.5625 19.5625 C12.62887695 19.62727539 12.62887695 19.62727539 13.71679688 19.69335938 C15.47761912 19.79971777 17.2387832 19.90038846 19 20 C19 20.33 19 20.66 19 21 C12.73 21 6.46 21 0 21 C0 14.07 0 7.14 0 0 Z " fill="#291E19" transform="translate(564,410)"/>
<path d="M0 0 C5.61 0 11.22 0 17 0 C17.33 6.27 17.66 12.54 18 19 C11.73 19 5.46 19 -1 19 C-0.505 17.515 -0.505 17.515 0 16 C5.28 16 10.56 16 16 16 C16 11.05 16 6.1 16 1 C10.72 1 5.44 1 0 1 C0 0.67 0 0.34 0 0 Z " fill="#1E1815" transform="translate(283,412)"/>
<path d="M0 0 C0.33 0 0.66 0 1 0 C1.33 7.59 1.66 15.18 2 23 C-4.27 23 -10.54 23 -17 23 C-17.33 22.34 -17.66 21.68 -18 21 C-12.06 21 -6.12 21 0 21 C0 14.07 0 7.14 0 0 Z " fill="#FAC38A" transform="translate(357,660)"/>
<path d="M0 0 C0.33 0 0.66 0 1 0 C1 6.6 1 13.2 1 20 C-5.27 20 -11.54 20 -18 20 C-18 19.34 -18 18.68 -18 18 C-9.585 17.505 -9.585 17.505 -1 17 C-0.67 11.39 -0.34 5.78 0 0 Z " fill="#36271F" transform="translate(741,411)"/>
<path d="M0 0 C7.59 0 15.18 0 23 0 C23 0.66 23 1.32 23 2 C12.11 2.495 12.11 2.495 1 3 C0.67 2.01 0.34 1.02 0 0 Z " fill="#443123" transform="translate(746,640)"/>
</svg>
